
<svg width="900" height="320" xmlns="http://www.w3.org/2000/svg">

<style>
.bg { fill: #0d1117; }
.panel { fill: #161b22; stroke: #00FF9C; stroke-width: 1; }
.title { fill: #00FF9C; font-family: monospace; font-size: 16px; }
.text { fill: #c9d1d9; font-family: monospace; font-size: 12px; }
.scan { opacity: 0.05; }
</style>

<rect class="bg" width="900" height="320"/>

<!-- Scanlines -->
<g class="scan">
  <line x1="0" y1="0" x2="900" y2="0" stroke="#00FF9C"/><line x1="0" y1="8" x2="900" y2="8" stroke="#00FF9C"/><line x1="0" y1="16" x2="900" y2="16" stroke="#00FF9C"/><line x1="0" y1="24" x2="900" y2="24" stroke="#00FF9C"/><line x1="0" y1="32" x2="900" y2="32" stroke="#00FF9C"/><line x1="0" y1="40" x2="900" y2="40" stroke="#00FF9C"/><line x1="0" y1="48" x2="900" y2="48" stroke="#00FF9C"/><line x1="0" y1="56" x2="900" y2="56" stroke="#00FF9C"/><line x1="0" y1="64" x2="900" y2="64" stroke="#00FF9C"/><line x1="0" y1="72" x2="900" y2="72" stroke="#00FF9C"/><line x1="0" y1="80" x2="900" y2="80" stroke="#00FF9C"/><line x1="0" y1="88" x2="900" y2="88" stroke="#00FF9C"/><line x1="0" y1="96" x2="900" y2="96" stroke="#00FF9C"/><line x1="0" y1="104" x2="900" y2="104" stroke="#00FF9C"/><line x1="0" y1="112" x2="900" y2="112" stroke="#00FF9C"/><line x1="0" y1="120" x2="900" y2="120" stroke="#00FF9C"/><line x1="0" y1="128" x2="900" y2="128" stroke="#00FF9C"/><line x1="0" y1="136" x2="900" y2="136" stroke="#00FF9C"/><line x1="0" y1="144" x2="900" y2="144" stroke="#00FF9C"/><line x1="0" y1="152" x2="900" y2="152" stroke="#00FF9C"/><line x1="0" y1="160" x2="900" y2="160" stroke="#00FF9C"/><line x1="0" y1="168" x2="900" y2="168" stroke="#00FF9C"/><line x1="0" y1="176" x2="900" y2="176" stroke="#00FF9C"/><line x1="0" y1="184" x2="900" y2="184" stroke="#00FF9C"/><line x1="0" y1="192" x2="900" y2="192" stroke="#00FF9C"/><line x1="0" y1="200" x2="900" y2="200" stroke="#00FF9C"/><line x1="0" y1="208" x2="900" y2="208" stroke="#00FF9C"/><line x1="0" y1="216" x2="900" y2="216" stroke="#00FF9C"/><line x1="0" y1="224" x2="900" y2="224" stroke="#00FF9C"/><line x1="0" y1="232" x2="900" y2="232" stroke="#00FF9C"/><line x1="0" y1="240" x2="900" y2="240" stroke="#00FF9C"/><line x1="0" y1="248" x2="900" y2="248" stroke="#00FF9C"/><line x1="0" y1="256" x2="900" y2="256" stroke="#00FF9C"/><line x1="0" y1="264" x2="900" y2="264" stroke="#00FF9C"/><line x1="0" y1="272" x2="900" y2="272" stroke="#00FF9C"/><line x1="0" y1="280" x2="900" y2="280" stroke="#00FF9C"/><line x1="0" y1="288" x2="900" y2="288" stroke="#00FF9C"/><line x1="0" y1="296" x2="900" y2="296" stroke="#00FF9C"/><line x1="0" y1="304" x2="900" y2="304" stroke="#00FF9C"/><line x1="0" y1="312" x2="900" y2="312" stroke="#00FF9C"/>
</g>

<!-- Panels -->
<rect class="panel" x="20" y="20" width="360" height="140" rx="10"/>
<rect class="panel" x="400" y="20" width="480" height="140" rx="10"/>
<rect class="panel" x="20" y="180" width="860" height="120" rx="10"/>

<!-- Titles -->
<text x="40" y="50" class="title">SYSTEM CORE</text>
<text x="420" y="50" class="title">LANG MATRIX</text>
<text x="40" y="210" class="title">ACTIVITY SIGNAL</text>

<!-- System Info -->
<text x="40" y="80" class="text">User      : rdx-exe</text>
<text x="40" y="100" class="text">Repos     : 7</text>
<text x="40" y="120" class="text">Followers : 6</text>
<text x="40" y="140" class="text">Mode      : ACTIVE</text>

<!-- Language Bars -->

      <text x="420" y="90" class="text">TypeScript</text>
      <rect x="520" y="80" width="220" height="10" fill="#00FF9C">
        <animate attributeName="width" from="0" to="220" dur="1.2s" fill="freeze"/>
      </rect>
    
      <text x="420" y="115" class="text">JavaScript</text>
      <rect x="520" y="105" width="44" height="10" fill="#00FF9C">
        <animate attributeName="width" from="0" to="44" dur="1.2s" fill="freeze"/>
      </rect>
    
      <text x="420" y="140" class="text">Rust</text>
      <rect x="520" y="130" width="44" height="10" fill="#00FF9C">
        <animate attributeName="width" from="0" to="44" dur="1.2s" fill="freeze"/>
      </rect>
    

<!-- Activity Pulse -->

      <rect x="40" y="217" width="6" height="43" fill="#00FF9C">
        <animate attributeName="height" values="5;43;5" dur="2s" repeatCount="indefinite"/>
      </rect>
    
      <rect x="52" y="232" width="6" height="28" fill="#00FF9C">
        <animate attributeName="height" values="5;28;5" dur="2s" repeatCount="indefinite"/>
      </rect>
    
      <rect x="64" y="241" width="6" height="19" fill="#00FF9C">
        <animate attributeName="height" values="5;19;5" dur="2s" repeatCount="indefinite"/>
      </rect>
    
      <rect x="76" y="220" width="6" height="40" fill="#00FF9C">
        <animate attributeName="height" values="5;40;5" dur="2s" repeatCount="indefinite"/>
      </rect>
    
      <rect x="88" y="245" width="6" height="15" fill="#00FF9C">
        <animate attributeName="height" values="5;15;5" dur="2s" repeatCount="indefinite"/>
      </rect>
    
      <rect x="100" y="234" width="6" height="26" fill="#00FF9C">
        <animate attributeName="height" values="5;26;5" dur="2s" repeatCount="indefinite"/>
      </rect>
    
      <rect x="112" y="244" width="6" height="16" fill="#00FF9C">
        <animate attributeName="height" values="5;16;5" dur="2s" repeatCount="indefinite"/>
      </rect>
    
      <rect x="124" y="234" width="6" height="26" fill="#00FF9C">
        <animate attributeName="height" values="5;26;5" dur="2s" repeatCount="indefinite"/>
      </rect>
    
      <rect x="136" y="235" width="6" height="25" fill="#00FF9C">
        <animate attributeName="height" values="5;25;5" dur="2s" repeatCount="indefinite"/>
      </rect>
    
      <rect x="148" y="223" width="6" height="37" fill="#00FF9C">
        <animate attributeName="height" values="5;37;5" dur="2s" repeatCount="indefinite"/>
      </rect>
    
      <rect x="160" y="216" width="6" height="44" fill="#00FF9C">
        <animate attributeName="height" values="5;44;5" dur="2s" repeatCount="indefinite"/>
      </rect>
    
      <rect x="172" y="242" width="6" height="18" fill="#00FF9C">
        <animate attributeName="height" values="5;18;5" dur="2s" repeatCount="indefinite"/>
      </rect>
    
      <rect x="184" y="247" width="6" height="13" fill="#00FF9C">
        <animate attributeName="height" values="5;13;5" dur="2s" repeatCount="indefinite"/>
      </rect>
    
      <rect x="196" y="248" width="6" height="12" fill="#00FF9C">
        <animate attributeName="height" values="5;12;5" dur="2s" repeatCount="indefinite"/>
      </rect>
    
      <rect x="208" y="243" width="6" height="17" fill="#00FF9C">
        <animate attributeName="height" values="5;17;5" dur="2s" repeatCount="indefinite"/>
      </rect>
    
      <rect x="220" y="215" width="6" height="45" fill="#00FF9C">
        <animate attributeName="height" values="5;45;5" dur="2s" repeatCount="indefinite"/>
      </rect>
    
      <rect x="232" y="229" width="6" height="31" fill="#00FF9C">
        <animate attributeName="height" values="5;31;5" dur="2s" repeatCount="indefinite"/>
      </rect>
    
      <rect x="244" y="214" width="6" height="46" fill="#00FF9C">
        <animate attributeName="height" values="5;46;5" dur="2s" repeatCount="indefinite"/>
      </rect>
    
      <rect x="256" y="230" width="6" height="30" fill="#00FF9C">
        <animate attributeName="height" values="5;30;5" dur="2s" repeatCount="indefinite"/>
      </rect>
    
      <rect x="268" y="245" width="6" height="15" fill="#00FF9C">
        <animate attributeName="height" values="5;15;5" dur="2s" repeatCount="indefinite"/>
      </rect>
    
      <rect x="280" y="220" width="6" height="40" fill="#00FF9C">
        <animate attributeName="height" values="5;40;5" dur="2s" repeatCount="indefinite"/>
      </rect>
    
      <rect x="292" y="248" width="6" height="12" fill="#00FF9C">
        <animate attributeName="height" values="5;12;5" dur="2s" repeatCount="indefinite"/>
      </rect>
    
      <rect x="304" y="217" width="6" height="43" fill="#00FF9C">
        <animate attributeName="height" values="5;43;5" dur="2s" repeatCount="indefinite"/>
      </rect>
    
      <rect x="316" y="235" width="6" height="25" fill="#00FF9C">
        <animate attributeName="height" values="5;25;5" dur="2s" repeatCount="indefinite"/>
      </rect>
    
      <rect x="328" y="246" width="6" height="14" fill="#00FF9C">
        <animate attributeName="height" values="5;14;5" dur="2s" repeatCount="indefinite"/>
      </rect>
    
      <rect x="340" y="214" width="6" height="46" fill="#00FF9C">
        <animate attributeName="height" values="5;46;5" dur="2s" repeatCount="indefinite"/>
      </rect>
    
      <rect x="352" y="237" width="6" height="23" fill="#00FF9C">
        <animate attributeName="height" values="5;23;5" dur="2s" repeatCount="indefinite"/>
      </rect>
    
      <rect x="364" y="236" width="6" height="24" fill="#00FF9C">
        <animate attributeName="height" values="5;24;5" dur="2s" repeatCount="indefinite"/>
      </rect>
    
      <rect x="376" y="235" width="6" height="25" fill="#00FF9C">
        <animate attributeName="height" values="5;25;5" dur="2s" repeatCount="indefinite"/>
      </rect>
    
      <rect x="388" y="235" width="6" height="25" fill="#00FF9C">
        <animate attributeName="height" values="5;25;5" dur="2s" repeatCount="indefinite"/>
      </rect>
    

<!-- Sweep Effect -->
<rect x="-200" y="0" width="200" height="320" fill="url(#grad)">
  <animate attributeName="x" from="-200" to="900" dur="3s" repeatCount="indefinite"/>
</rect>

<defs>
  <linearGradient id="grad">
    <stop offset="0%" stop-color="#00FF9C" stop-opacity="0"/>
    <stop offset="50%" stop-color="#00FF9C" stop-opacity="0.2"/>
    <stop offset="100%" stop-color="#00FF9C" stop-opacity="0"/>
  </linearGradient>
</defs>

</svg>
